inDegrees=yes
nColumns=22
nRows=29
DataType=double
version=3
OpenSimVersion=4.5
endheader
time	pelvis_tilt	pelvis_list	pelvis_rotation	pelvis_tx	pelvis_ty	pelvis_tz	hip_flexion_r	hip_adduction_r	hip_rotation_r	knee_angle_r	ankle_angle_r	mtp_angle_r	hip_flexion_l	hip_adduction_l	hip_rotation_l	knee_angle_l	ankle_angle_l	mtp_angle_l	lumbar_extension	lumbar_bending	lumbar_rotation
0.689809371953482	-0.3396063455827545	5.867370754079991	-5.20079721267515	0.8662484616762803	0.8672988906263717	-0.01096241424176677	1.769585025439941	-5.6519226717644	4.592413245302877	-56.46309392587909	-1.460927338831113	0	18.61921897155819	8.152045916689202	-6.456749605445072	-20.45577941829133	3.393674157493369	0	-1.271953400789781	-9.033005919022166	6.688293216042483
0.7002610291042924	-0.363676344900548	5.797285984709435	-5.350653233657132	0.8784500025504153	0.8696123669672725	-0.01155903891736488	4.153774659901694	-5.792647940910449	4.830619750003757	-58.41534088170682	-0.6601100014287201	0	17.26472374073852	8.192379764152479	-6.866301989544247	-19.50059757294889	3.788013673544878	0	-1.240112954006727	-8.885906695914207	6.212681105653861
0.7107126862551028	-0.3718596712413741	5.612526360067349	-5.515285286078064	0.8902796698806094	0.8719437122405406	-0.01211909734144185	6.608266302229671	-5.79912393263102	5.002043936239166	-60.08071791802323	0.2137616219892067	0	15.89995848306634	8.125141398983711	-7.233958620736546	-18.53068691643115	4.165534105808147	0	-1.280872873382315	-8.59558699332559	5.716599855477655
0.721164343405913	-0.3611427698733582	5.327989685344235	-5.677257287192506	0.9017888461996192	0.8742557450176076	-0.01265192879657469	9.095789066193358	-5.672852180840136	5.096801095317007	-61.45157191331334	1.136086171762318	0	14.52850890019296	7.968497021179362	-7.53577333730401	-17.57005196379334	4.562889790284423	0	-1.394478371797128	-8.185471343689372	5.201306431849169
0.7316160005567234	-0.3294766501548194	4.96652323633282	-5.821728964328315	0.9130494636196455	0.8765077090398613	-0.01316810204527677	11.56792720932346	-5.43577295576926	5.102018684711839	-62.49062723038868	2.102032361204498	0	13.14743547973972	7.746596712520765	-7.763358998394647	-16.62602074921341	4.998916888848426	0	-1.574847262936261	-7.686698195162199	4.66892328821424
0.7420676577075338	-0.2759809405994091	4.554497843423476	-5.937689137041427	0.924133583601554	0.8786534169479753	-0.013672540047996	13.98101989690813	-5.118200205338504	5.011893288258011	-63.16953091379782	3.108937661889135	0	11.75464083762535	7.485253647886671	-7.916032806617397	-15.70215802869979	5.484343288676315	0	-1.812427905940904	-7.133859185474157	4.121712601414447
0.752519314858344	-0.2012954278483674	4.1228531512445	-6.017315946884189	0.9350873524849942	0.8806397488228426	-0.01416649297596529	16.30596329057285	-4.758757560495994	4.826399171867816	-63.48086734515034	4.129263628495995	0	10.36014066914663	7.212692624919474	-7.998391300234194	-14.8135221730576	6.013625986341837	0	-2.099184563053684	-6.566731932955067	3.56267151526588
0.7629709720091543	-0.1076003425778736	3.700619913440718	-6.055583165950998	0.9459565577531165	0.8824237563135081	-0.0146498988433446	18.50504468477238	-4.397238135615286	4.550085242877866	-63.37039297377812	5.134492518157635	0	8.974453647930659	6.954649830915709	-8.019206870249368	-13.97074336582775	6.567613334582722	0	-2.424892999384101	-6.021993776950643	2.996814809020035
0.7734226291599647	0.002283194187562033	3.310105728076073	-6.045372573395239	0.9568301634421627	0.8840032356009082	-0.01512021274694668	20.48213839385248	-4.068828640474123	4.187417323808869	-62.61652335630446	6.114206977762591	0	7.595325676754869	6.731450431565261	-7.983610494937417	-13.16255373491819	7.10211205474128	0	-2.771625774186776	-5.529670885789988	2.429320893070412
0.7838742863107752	0.1246297267995606	2.969344932994409	-5.984433498261353	0.9677350549906708	0.8853418431573139	-0.01556284802306455	22.21507702871503	-3.787335391688886	3.757898611601202	-61.23319007312207	7.023967773168072	0	6.233860361757	6.556673383591973	-7.894050599015134	-12.39877887592427	7.598641980931847	0	-3.12895250804613	-5.114020925308769	1.861166964684399
0.7943259434615854	0.2564102943426698	2.691855151057704	-5.872256354186417	0.9786831772483667	0.8864000648655546	-0.01596146954985225	23.70907436014508	-3.556108265903967	3.282624669296272	-59.30933771003009	7.747794869588569	0	4.899813526291398	6.439216800206792	-7.751667645162513	-11.69186519591163	8.062719053283502	0	-3.489142925218978	-4.79299374498364	1.291592907057716
0.8047776006123957	0.3947319973181416	2.486792216721262	-5.7106280630824	0.989695914641222	0.887153312051199	-0.01630266322953891	24.96417225661136	-3.374648866733973	2.782479431315572	-56.90244221115958	8.187701515236469	0	3.593696083018663	6.384806684057548	-7.559047930848307	-11.03857473803459	8.491851936207089	0	-3.843529906336674	-4.577671167231935	0.7209261559027682
0.8152292577632061	0.5378174611524146	2.359504910087231	-5.503713554230669	1.000793290392793	0.8875898752247077	-0.01658049617685322	25.97971402305693	-3.241406895720226	2.278169110116422	-54.05177298226983	8.241690387976901	0	2.312535355237151	6.396267574174016	-7.321241605273331	-10.43363664557424	8.888181761718029	0	-4.185976132942701	-4.472293469981654	0.150656404129772
0.8256809149140164	0.6838088292370107	2.314600761965618	-5.259142553978529	1.011988476568747	0.8877018312007221	-0.01679498940637813	26.76321913020146	-3.15728919964784	1.789729128953445	-50.80261210996755	7.844441868501214	0	1.053311320089962	6.476556227553637	-7.048821904116421	-9.871998659998328	9.257603408004561	0	-4.512139683801828	-4.477969932060929	-0.4153257015338301
0.8361325720648267	0.8307354198946802	2.359112998250158	-4.987340917518749	1.023278609326587	0.8874727396583154	-0.01694724490901761	27.35146430269505	-3.128078584623542	1.333371046257993	-47.2716875679182	6.946540513755671	0	-0.1841382978189817	6.631827370564787	-6.754570854137659	-9.353616323412457	9.617443351722159	0	-4.820389494373885	-4.59799200917196	-0.9718682158283923
0.846584229215637	0.9782174386251279	2.493706706654069	-4.699526502727441	1.03465019091645	0.8868734977450424	-0.01703810337007105	27.82229434485424	-3.152815821421869	0.9193879977868308	-43.71167070814845	5.67011220761222	0	-1.399605703455888	6.862397439452216	-6.454026754677043	-8.88460094976478	9.997998726069779	0	-5.112778764478332	-4.827870203654425	-1.515511805051844
0.8570358863664473	1.124700140325688	2.713203841234103	-4.406618525907755	1.046095773110527	0.8858984239154847	-0.01707352304571293	28.21877344446776	-3.229646912843022	0.5528041943676377	-40.23362329393734	4.367829238173424	0	-2.596706248021432	7.164045981287797	-6.166515023769373	-8.45886505989286	10.40732192833907	0	-5.391864321284483	-5.156117350613258	-2.040415777444258
0.8674875435172578	1.268173401934614	3.004900835528638	-4.117596575294242	1.057622323277114	0.8845613757325494	-0.01705662996829958	28.55248922216826	-3.347920507471574	0.2377250515920302	-36.84724978313637	3.476744475971552	0	-3.783458095641088	7.525554455258441	-5.908152630071386	-8.061652857319455	10.84194052237781	0	-5.658577402274728	-5.56399105966811	-2.540559984361872
0.8779392006680681	1.407906603849362	3.352162563903273	-3.839038968002648	1.069241817932292	0.8828931803077319	-0.01698767363519371	28.82868391272934	-3.493455709644422	-0.02632347947118755	-33.55263403291211	3.043493392439987	0	-4.97106545248217	7.931905268552263	-5.689801358482001	-7.675275283820525	11.29687176945272	0	-5.91397277112657	-6.030109340221589	-3.012493363050308
0.8883908578188783	1.542839491621288	3.736950545781581	-3.575840548101039	1.080969883107722	0.8809336107132469	-0.01686484481595218	29.04749200614084	-3.650905601774579	-0.2417727831791929	-30.33842371011219	2.842195010236429	0	-6.16931695315793	8.366482820400712	-5.519460200261939	-7.283426595238361	11.76267048025322	0	-6.1572085959188	-6.532752265514223	-3.454469336391112
0.8988425149696887	1.671287108657966	4.138295131522867	-3.329876379836671	1.092810420442826	0.8787240014905682	-0.01668770809554821	29.20541125048464	-3.801902321460652	-0.4110528700348158	-27.1911641555275	2.668167065753508	0	-7.373230840319157	8.808186860802648	-5.404357607913571	-6.894186688682882	12.23155049230515	0	-6.389183786255032	-7.047518332295176	-3.866152831532827
0.9092941721204991	1.79110402998047	4.536416347417189	-3.100047755380461	1.104747031932877	0.8763051458344681	-0.01645881805621504	29.30070126728319	-3.931028767778961	-0.5414935824430485	-24.10829111020352	2.416172986142491	0	-8.557458627718836	9.235446823434513	-5.351759045396023	-6.550407140989782	12.70550496779991	0	-6.614464166848672	-7.551876441570156	-4.247747730236876
0.9197458292713094	1.89968993821865	4.913343667515568	-2.883567847343334	1.116755113047706	0.8737181372706583	-0.01618551280101667	29.33802446806464	-4.026921490736021	-0.6489743795723384	-21.11194730874817	2.064552988061459	0	-9.686549054134188	9.628067501841576	-5.368980651687537	-6.310555367083618	13.18910243402341	0	-6.838452366612136	-8.024660282256628	-4.59962297273305
0.9301974864221196	1.995397226713264	5.260010688619626	-2.678360919768183	1.128818921825077	0.8710044448836912	-0.01587681842795074	29.3376298881195	-4.088011482522895	-0.7523656847021774	-18.27606972456801	1.630962112975172	0	-10.73612960623492	9.976278740249949	-5.459318674793062	-6.212302585476033	13.67598895719057	0	-7.064425106801924	-8.454034560909164	-4.924103794213609
0.9406491435729301	2.077206312706585	5.566459222136869	-2.482453243427628	1.140946104619061	0.8682115989758905	-0.01554874764717859	29.32282117132399	-4.112851296647324	-0.8714641159657329	-15.69353034007355	1.148507434690264	0	-11.70030479283994	10.27076073613452	-5.618825054349787	-6.260699807889075	14.14130695021738	0	-7.290820194597138	-8.824811184000859	-5.223515913632555
0.9511008007237405	2.143972875644964	5.820644781909098	-2.293632470336419	1.153154368028572	0.8653892704947226	-0.01521959182141006	29.32667113651961	-4.097842764145729	-1.033052899425625	-13.48840495374824	0.6459181844966776	0	-12.58450858512211	10.50052804888989	-5.841960879765899	-6.441355855836329	14.56353913010084	0	-7.51319296932003	-9.118649697149882	-5.500313090325926
0.9615524578745507	2.194114469853826	6.027724689919221	-2.110249442816722	1.165473160143701	0.8625833981236093	-0.01490036500659922	29.39412355402595	-4.056262790742067	-1.258691190720885	-11.82109827896281	0.2153826699601648	0	-13.40522243446488	10.67272702700015	-6.118700719734774	-6.716987685546079	14.90380356872294	0	-7.722545561217835	-9.339403752675562	-5.757863628107427
0.972004115025361	2.224380634797016	6.188401834754444	-1.926706701064309	1.177935663198161	0.8598416858349964	-0.01460085139935623	29.55935038120831	-3.997999419909503	-1.555437987167248	-10.8272775884106	-0.05577776055825508	0	-14.16674312824781	10.78669179810218	-6.434039753649137	-7.072927791147872	15.12995122212987	0	-7.907445119992084	-9.487666409221948	-5.997632132018949
0.9824557721761714	2.23164217318506	6.282729342394089	-1.733165299382056	1.190592800269197	0.857220476353463	-0.01432845384154758	29.82747263984179	-3.912486310542612	-1.934564920857158	-10.58615724694934	-0.1844493286674863	0	-14.86269940387671	10.81737841462709	-6.779230502105669	-7.519905090936192	15.23104095940923	0	-8.053492880289326	-9.541755987144041	-6.219305962187909
